<svg width="128" height="128" viewBox="0 0 128 128" fill="none" xmlns="http://www.w3.org/2000/svg">
  <rect width="128" height="128" rx="24" fill="#131722"/>
  <g filter="url(#filter0_d)">
    <path d="M64 66C77.2548 66 88 55.2548 88 42C88 28.7452 77.2548 18 64 18C50.7452 18 40 28.7452 40 42C40 55.2548 50.7452 66 64 66Z" fill="url(#paint0_linear)"/>
    <path d="M32 110C32 89.5655 48.5655 73 69 73H59C38.5655 73 22 89.5655 22 110C22 113.313 24.6863 116 28 116H100C103.314 116 106 113.313 106 110C106 89.5655 89.4345 73 69 73H59C38.5655 73 22 89.5655 22 110C22 113.313 24.6863 116 28 116H100C103.314 116 106 113.313 106 110" fill="url(#paint1_linear)"/>
  </g>
  <defs>
    <filter id="filter0_d" x="6" y="10" width="116" height="116" filterUnits="userSpaceOnUse" color-interpolation-filters="sRGB">
      <feFlood flood-opacity="0" result="BackgroundImageFix"/>
      <feColorMatrix in="SourceAlpha" type="matrix" values="0 0 0 0 0 0 0 0 0 0 0 0 0 0 0 0 0 0 127 0" result="hardAlpha"/>
      <feOffset dy="4"/>
      <feGaussianBlur stdDeviation="6"/>
      <feComposite in2="hardAlpha" operator="out"/>
      <feColorMatrix type="matrix" values="0 0 0 0 0.0588 0 0 0 0 0.0706 0 0 0 0 0.149 0 0 0 0.2 0"/>
      <feBlend mode="normal" in2="BackgroundImageFix" result="effect1_dropShadow"/>
      <feBlend mode="normal" in="SourceGraphic" in2="effect1_dropShadow" result="shape"/>
    </filter>
    <linearGradient id="paint0_linear" x1="40" y1="18" x2="96" y2="86" gradientUnits="userSpaceOnUse">
      <stop stop-color="#4F46E5"/>
      <stop offset="1" stop-color="#7C3AED"/>
    </linearGradient>
    <linearGradient id="paint1_linear" x1="32" y1="73" x2="112" y2="128" gradientUnits="userSpaceOnUse">
      <stop stop-color="#252B3D"/>
      <stop offset="1" stop-color="#1A1F2D"/>
    </linearGradient>
  </defs>
</svg>
